<svg xmlns="http://www.w3.org/2000/svg" width="256" height="256" fill="currentColor" viewBox="0 0 256 256"><!-- Phosphor Regular · portado desde el prototipo de Odobi --><path d="M239.82,157l-58.4-25.79a8,8,0,0,0-6.84,0L116.18,157A8,8,0,0,0,112,164.24V184c0,24.36,26.1,39.68,58.4,52a8,8,0,0,0,5.2,0c32.3-12.32,58.4-27.64,58.4-52V164.24A8,8,0,0,0,239.82,157ZM224,184c0,15.68-19.2,27.28-46,38-26.8-10.72-46-22.32-46-38V169.42l46-20.3,46,20.3ZM96,168a8,8,0,0,1-8,8H32a16,16,0,0,1-16-16V56A16,16,0,0,1,32,40H208a16,16,0,0,1,16,16v40a8,8,0,0,1-16,0V56H32V160H88A8,8,0,0,1,96,168Z"/></svg>
